<?xml version="1.0" standalone="no"?>
<!DOCTYPE svg PUBLIC "-//W3C//DTD SVG 20010904//EN"
 "http://www.w3.org/TR/2001/REC-SVG-20010904/DTD/svg10.dtd">
<svg version="1.0" xmlns="http://www.w3.org/2000/svg"
 width="700.000000pt" height="700.000000pt" viewBox="0 0 700.000000 700.000000"
 preserveAspectRatio="xMidYMid meet">
<metadata>
Created by potrace 1.14, written by Peter Selinger 2001-2017
</metadata>
<g transform="translate(0.000000,700.000000) scale(0.100000,-0.100000)"
fill="#000000" stroke="none">
<path d="M3280 6994 c-19 -2 -84 -9 -145 -14 -578 -56 -1180 -283 -1660 -625
-237 -169 -531 -446 -709 -670 -416 -521 -673 -1147 -748 -1820 -17 -155 -17
-575 0 -730 74 -671 334 -1303 749 -1820 115 -144 339 -373 483 -494 537 -451
1164 -718 1885 -803 145 -17 576 -17 730 0 822 91 1556 447 2131 1034 203 206
348 390 487 618 274 449 431 911 499 1465 16 130 16 600 0 730 -85 692 -316
1263 -728 1795 -114 148 -446 480 -594 594 -520 403 -1101 642 -1750 722 -117
15 -553 27 -630 18z m982 -1815 c511 -103 923 -528 1001 -1033 l13 -81 83 -45
c241 -131 381 -362 381 -630 0 -277 -150 -519 -395 -639 -166 -82 -3 -75
-1815 -79 -1819 -3 -1700 -8 -1865 73 -154 75 -253 170 -330 317 -101 191
-103 453 -7 645 107 212 318 363 555 397 36 6 47 11 47 25 0 36 41 178 69 238
99 211 278 369 501 444 154 52 357 53 513 3 l48 -16 66 62 c211 198 447 306
743 340 103 12 276 3 392 -21z m-1654 -2988 c109 -144 129 -242 70 -341 -84
-140 -258 -161 -373 -46 -52 53 -75 103 -75 167 0 66 88 214 199 332 l45 49
46 -53 c25 -28 64 -77 88 -108z m1094 4 c86 -113 111 -172 106 -245 -11 -151
-156 -251 -305 -209 -62 17 -147 97 -162 154 -15 54 -14 95 4 144 20 57 95
167 168 247 l60 66 34 -39 c19 -21 61 -74 95 -118z m1021 98 c127 -145 187
-249 187 -327 -1 -125 -109 -235 -231 -236 -137 0 -248 105 -249 236 0 78 50
167 178 316 31 37 60 66 63 65 3 -1 27 -26 52 -54z"/>
</g>
</svg>
